<svg width="133" height="27" viewBox="0 0 133 27" fill="none" xmlns="http://www.w3.org/2000/svg">
<path d="M4.49039 0.223999H9.81039L5.66639 21H0.34639L4.49039 0.223999Z" fill="#757575"/>
<path d="M17.5517 21.252C15.9464 21.252 14.5464 20.972 13.3517 20.412C12.1571 19.8333 11.2331 19.0213 10.5797 17.976C9.9264 16.9307 9.59973 15.7173 9.59973 14.336C9.59973 12.6747 10.0011 11.1813 10.8037 9.856C11.6064 8.53067 12.7171 7.48533 14.1357 6.72C15.5544 5.95467 17.1504 5.572 18.9237 5.572C20.5291 5.572 21.9291 5.86133 23.1237 6.44C24.3184 7 25.2424 7.80267 25.8957 8.848C26.5491 9.87467 26.8757 11.0787 26.8757 12.46C26.8757 14.1213 26.4744 15.624 25.6717 16.968C24.8691 18.2933 23.7584 19.3387 22.3397 20.104C20.9397 20.8693 19.3437 21.252 17.5517 21.252ZM17.8597 16.968C18.9237 16.968 19.7917 16.576 20.4637 15.792C21.1357 15.008 21.4717 13.9907 21.4717 12.74C21.4717 11.844 21.2197 11.1347 20.7157 10.612C20.2117 10.0893 19.5117 9.828 18.6157 9.828C17.5517 9.828 16.6837 10.22 16.0117 11.004C15.3397 11.788 15.0037 12.8147 15.0037 14.084C15.0037 14.98 15.2557 15.6893 15.7597 16.212C16.2637 16.716 16.9637 16.968 17.8597 16.968Z" fill="#757575"/>
<path d="M47.0928 5.824L44.6288 18.2C44.0502 21.1307 42.9208 23.2773 41.2408 24.64C39.5608 26.0027 37.3488 26.684 34.6048 26.684C31.5435 26.684 29.0795 26.0307 27.2128 24.724L29.5928 21.028C30.2088 21.5133 30.9742 21.896 31.8888 22.176C32.8035 22.456 33.7555 22.596 34.7448 22.596C36.0702 22.596 37.0688 22.3067 37.7408 21.728C38.4315 21.168 38.8888 20.3187 39.1128 19.18L39.2248 18.676C38.0862 19.7027 36.6768 20.216 34.9968 20.216C33.7835 20.216 32.6728 19.9547 31.6648 19.432C30.6568 18.9093 29.8542 18.1627 29.2568 17.192C28.6595 16.2027 28.3608 15.0547 28.3608 13.748C28.3608 12.2547 28.7248 10.8827 29.4528 9.632C30.1808 8.38133 31.1795 7.392 32.4488 6.664C33.7182 5.936 35.1275 5.572 36.6768 5.572C37.8342 5.572 38.8328 5.78667 39.6728 6.216C40.5315 6.64533 41.1568 7.31733 41.5488 8.232L42.0248 5.824H47.0928ZM36.5648 15.96C37.6288 15.96 38.4875 15.624 39.1408 14.952C39.8128 14.28 40.1488 13.4027 40.1488 12.32C40.1488 11.5733 39.8968 10.976 39.3928 10.528C38.8888 10.0613 38.1982 9.828 37.3208 9.828C36.2568 9.828 35.3888 10.1733 34.7168 10.864C34.0448 11.536 33.7088 12.4133 33.7088 13.496C33.7088 14.2427 33.9608 14.84 34.4648 15.288C34.9688 15.736 35.6688 15.96 36.5648 15.96Z" fill="#757575"/>
<path d="M55.915 21.252C54.3097 21.252 52.9097 20.972 51.715 20.412C50.5203 19.8333 49.5963 19.0213 48.943 17.976C48.2897 16.9307 47.963 15.7173 47.963 14.336C47.963 12.6747 48.3643 11.1813 49.167 9.856C49.9697 8.53067 51.0803 7.48533 52.499 6.72C53.9177 5.95467 55.5137 5.572 57.287 5.572C58.8923 5.572 60.2923 5.86133 61.487 6.44C62.6817 7 63.6057 7.80267 64.259 8.848C64.9124 9.87467 65.239 11.0787 65.239 12.46C65.239 14.1213 64.8377 15.624 64.035 16.968C63.2324 18.2933 62.1217 19.3387 60.703 20.104C59.303 20.8693 57.707 21.252 55.915 21.252ZM56.223 16.968C57.287 16.968 58.155 16.576 58.827 15.792C59.499 15.008 59.835 13.9907 59.835 12.74C59.835 11.844 59.583 11.1347 59.079 10.612C58.575 10.0893 57.875 9.828 56.979 9.828C55.915 9.828 55.047 10.22 54.375 11.004C53.703 11.788 53.367 12.8147 53.367 14.084C53.367 14.98 53.619 15.6893 54.123 16.212C54.627 16.716 55.327 16.968 56.223 16.968Z" fill="#757575"/>
<path d="M73.1641 15.344C73.1268 15.6053 73.1081 15.7733 73.1081 15.848C73.1081 16.7067 73.5748 17.136 74.5081 17.136C75.0121 17.136 75.5441 16.9867 76.1041 16.688L76.7761 20.356C75.7308 20.9533 74.4148 21.252 72.8281 21.252C71.2601 21.252 70.0094 20.86 69.0761 20.076C68.1614 19.292 67.7041 18.2 67.7041 16.8C67.7041 16.2587 67.7508 15.7827 67.8441 15.372L68.8521 10.36H66.6121L67.4241 6.384H69.6361L70.4201 2.436H75.7401L74.9561 6.384H78.4001L77.6161 10.36H74.1721L73.1641 15.344Z" fill="#757575"/>
<path d="M97.3701 5.824L87.6541 21.672C86.8514 22.96 86.0768 23.9587 85.3301 24.668C84.6021 25.396 83.8274 25.9093 83.0061 26.208C82.1848 26.5253 81.2234 26.684 80.1221 26.684C79.3194 26.684 78.5261 26.5627 77.7421 26.32C76.9394 26.0773 76.3048 25.76 75.8381 25.368L78.2181 21.616C78.8901 22.1947 79.6741 22.484 80.5701 22.484C81.0554 22.484 81.4661 22.372 81.8021 22.148C82.1381 21.9427 82.4741 21.5973 82.8101 21.112L79.3661 5.824H84.6581L86.5621 15.148L92.1621 5.824H97.3701Z" fill="#757575"/>
<path d="M107.873 5.572C108.993 5.572 110.039 5.852 111.009 6.412C111.999 6.95333 112.792 7.74667 113.389 8.792C113.987 9.83733 114.285 11.06 114.285 12.46C114.285 14.1213 113.912 15.624 113.165 16.968C112.437 18.2933 111.439 19.3387 110.169 20.104C108.919 20.8693 107.547 21.252 106.053 21.252C103.851 21.252 102.301 20.5613 101.405 19.18L99.9494 26.432H94.6294L98.7454 5.824H103.785L103.477 7.252C104.691 6.132 106.156 5.572 107.873 5.572ZM105.297 16.968C106.361 16.968 107.229 16.576 107.901 15.792C108.573 15.008 108.909 13.9907 108.909 12.74C108.909 11.844 108.648 11.1347 108.125 10.612C107.621 10.0893 106.921 9.828 106.025 9.828C104.961 9.828 104.093 10.22 103.421 11.004C102.749 11.788 102.413 12.8147 102.413 14.084C102.413 14.98 102.665 15.6893 103.169 16.212C103.692 16.716 104.401 16.968 105.297 16.968Z" fill="#757575"/>
<path d="M132.354 12.236C132.354 12.964 132.251 13.7947 132.046 14.728H120.902C121.089 16.3707 122.237 17.192 124.346 17.192C125.018 17.192 125.671 17.0893 126.306 16.884C126.941 16.6787 127.51 16.3707 128.014 15.96L130.226 19.292C128.453 20.5987 126.297 21.252 123.758 21.252C122.153 21.252 120.734 20.972 119.502 20.412C118.289 19.8333 117.346 19.0307 116.674 18.004C116.021 16.9587 115.694 15.736 115.694 14.336C115.694 12.6747 116.077 11.1813 116.842 9.856C117.626 8.512 118.709 7.46667 120.09 6.72C121.49 5.95467 123.086 5.572 124.878 5.572C126.39 5.572 127.706 5.852 128.826 6.412C129.965 6.95333 130.833 7.728 131.43 8.736C132.046 9.744 132.354 10.9107 132.354 12.236ZM124.626 9.352C123.767 9.352 123.049 9.58533 122.47 10.052C121.891 10.5 121.471 11.1253 121.21 11.928H127.454C127.473 11.1253 127.221 10.5 126.698 10.052C126.175 9.58533 125.485 9.352 124.626 9.352Z" fill="#757575"/>
</svg>
