<svg width="18" height="19" viewBox="0 0 18 19" fill="none" xmlns="http://www.w3.org/2000/svg">
<path d="M6.77344 0C5.94434 0 5.25 0.694336 5.25 1.52344V2.25H0V3.75H5.25V4.47656C5.25 5.2998 5.92969 5.98828 6.75 6C6.75879 6 6.76465 6 6.77344 6L7.45312 6.02344H7.47656C8.30566 6.02344 9 5.3291 9 4.5V3.77344L18 3.75V2.25L9 2.27344V1.54688C9 0.723633 8.31738 0.0351562 7.5 0.0234375H7.47656L6.79688 0H6.77344ZM6.75 1.5H6.77344L7.45312 1.52344H7.47656C7.49414 1.52344 7.5 1.5293 7.5 1.54688V4.5C7.5 4.50879 7.50293 4.52051 7.5 4.52344H7.47656L6.79688 4.5H6.77344C6.75586 4.5 6.75 4.49414 6.75 4.47656V1.52344C6.75 1.51465 6.74707 1.50293 6.75 1.5ZM12.7734 6C11.9443 6 11.25 6.69434 11.25 7.52344V8.25H0V9.75H11.25V10.4766C11.25 11.2998 11.9297 11.9883 12.75 12C12.7588 12 12.7646 12 12.7734 12L13.4531 12.0234H13.4766C14.3057 12.0234 15 11.3291 15 10.5V9.77344L18 9.75V8.25L15 8.27344V7.54688C15 6.72363 14.3203 6.03516 13.5 6.02344H13.4766L12.7969 6H12.7734ZM12.75 7.5H12.7734L13.4531 7.52344H13.4766C13.4941 7.52344 13.5 7.5293 13.5 7.54688V10.5C13.5 10.5088 13.5029 10.5205 13.5 10.5234H13.4766L12.7969 10.5H12.7734C12.7559 10.5 12.75 10.4941 12.75 10.4766V7.52344C12.75 7.51465 12.7471 7.50293 12.75 7.5ZM3.77344 12C2.94434 12 2.25 12.6943 2.25 13.5234V14.25H0V15.75H2.25V16.4766C2.25 17.2998 2.92969 17.9883 3.75 18C3.75879 18 3.76465 18 3.77344 18L4.45312 18.0234H4.47656C5.30566 18.0234 6 17.3291 6 16.5V15.7734L18 15.75V14.25L6 14.2734V13.5469C6 12.7236 5.32031 12.0352 4.5 12.0234H4.47656L3.79688 12H3.77344ZM3.75 13.5H3.77344L4.45312 13.5234H4.47656C4.49414 13.5234 4.5 13.5293 4.5 13.5469V16.5C4.5 16.5088 4.50293 16.5205 4.5 16.5234H4.47656L3.79688 16.5H3.77344C3.75586 16.5 3.75 16.4941 3.75 16.4766V13.5234C3.75 13.5146 3.74707 13.5029 3.75 13.5Z" fill="#BDBDBD"/>
</svg>
